# xmcd
#
# Track frame offsets:
#	150
#	13742
#	27502
#	42875
#	59155
#	72662
#	89192
#	104185
#	117337
#	132562
#
# Disc length: 1923 seconds
#
# Revision: 1
# Processed by: cddbd v1.5.2PL0 Copyright (c) Steve Scherf et al.
# Submitted via: audiograbber 1.83.01
#
DISCID=a507810a
DTITLE=TONY GALENO - JULIANA
DYEAR=1900
DGENRE=
TTITLE0=JULIANA
TTITLE1=VOLTE MENINA
TTITLE2=MULHER MALDITA
TTITLE3=MEU LUGAR É NO PARÁ
TTITLE4=COISINHA LINDA
TTITLE5=CLÉIA
TTITLE6=VAMOS FAZER AMOR
TTITLE7=TÔ SOFRENDO NA SOLIDÃO
TTITLE8=TE AMO AMOR
TTITLE9=ESTOU SOZINHO
EXTD=
EXTT0=
EXTT1=
EXTT2=
EXTT3=
EXTT4=
EXTT5=
EXTT6=
EXTT7=
EXTT8=
EXTT9=
PLAYORDER=
